<?xml version="1.0" encoding="UTF-8"?>
<svg width="20" height="20" viewBox="0 0 20 20" xmlns="http://www.w3.org/2000/svg">
  <g fill="none" fill-rule="evenodd">
    <!-- Top cap - symmetrical -->
    <polygon points="7.8 0 12.2 0 12.2 2.2 7.8 2.2" fill="var(--iconPrimary, #222)"/>
    <!-- Bottom base with curved right side -->
    <path d="M6.9 15L12.1 15C12 15.7 12 16.3 12.1 16.9C12.2 17.4 12.4 17.9 12.7 18.4L6.9 18.4L6.9 15Z" fill="var(--iconPrimary, #222)"/>
    <!-- Orange blob 1 -->
    <path d="M10.299 6.648C10.06 6.051 10.081 5.359 11.245 5.359C12.41 5.359 12.744 6.951 12.106 7.505C11.467 8.059 10.539 7.245 10.299 6.648Z" fill="#F48120"/>
    <!-- Orange blob 2 -->
    <path d="M8.296 4.206C8.36 3.699 8.919 3.444 9.766 3.188C10.434 2.986 11.778 2.579 11.701 3.188C11.625 3.797 10.17 4.494 9.532 5.047C8.894 5.601 8.232 4.714 8.296 4.206Z" fill="#F48120"/>
    <!-- Lamp outline - no fill -->
    <path d="M6.025 11.279L7.8 0H11.938L13.812 11.245C13.885 11.68 13.813 12.127 13.608 12.514L12.589 14.435C12.178 15.212 12.129 16.141 12.456 16.959L12.847 17.937C12.946 18.185 12.832 18.47 12.592 18.573L7.239 18.61C6.979 18.61 6.768 18.392 6.768 18.123C6.768 18.053 6.783 17.985 6.81 17.921L7.233 16.957C7.591 16.141 7.568 15.2 7.169 14.404L6.211 12.489C6.025 12.117 5.959 11.693 6.025 11.279Z" stroke="var(--iconPrimary, #222)" stroke-linecap="round" stroke-linejoin="round" fill="none"/>
    <!-- Orange blob 3 -->
    <path d="M8.217 7.308C9.249 7.308 9.084 8.679 10.086 9.41C11.224 10.24 12.349 10.167 12.804 10.582C13.004 10.764 13.208 11.233 13.04 11.991C12.872 12.749 10.628 14.194 9.62 13.87C8.613 13.547 8.385 12.807 7.871 11.955C7.358 11.103 7.185 7.308 8.217 7.308Z" fill="#F48120"/>
  </g>
</svg>
